<svg width="320" height="320" viewBox="0 0 320 320" fill="none" xmlns="http://www.w3.org/2000/svg">
<path d="M118.055 287.878C116.194 272.371 114.405 248.623 114.405 232.805V173.57L185.739 58.1934L200.196 28.5175C181.028 27.9427 161.91 26.2521 142.938 23.4542C140.767 31.8279 136.425 41.4431 128.361 55.0896L88.3519 124.562L53.5 66.4304L26.8359 115.544L62.6101 173.256V232.8C62.6678 247.105 64.3202 249.798 62.6101 264L118.055 287.878Z" fill="white"/>
<path d="M195.677 140.7V76.5569C195.677 57.8734 195.914 40.801 197.782 28.9681H141.42C143.528 44.7436 144.593 60.6411 144.608 76.5569V254.38C144.783 268.744 143.951 283.104 142.116 297.352H198.481C196.301 282.716 195.678 273.063 195.678 254.38V140.7H195.677Z" fill="white"/>
<path d="M231.683 145.49L288.973 87.524L252.923 61.5291C252.923 61.5291 245.002 71.2405 234.234 82.2886L169.904 150.308V204.719L199.372 175.251L231.683 145.49Z" fill="white"/>
<path d="M230.076 128.109L198.336 157.343L261.852 247.991C268.536 257.736 291.998 212.973 291.998 212.973L230.076 128.109Z" fill="white"/>
<path d="M299 160C299 236.768 236.768 299 160 299C83.2324 299 21 236.768 21 160C21 83.2324 83.2324 21 160 21C236.768 21 299 83.2324 299 160Z" stroke="white" stroke-width="20"/>
<path d="M315.468 160C315.468 245.863 245.863 315.468 160 315.468C74.1373 315.468 4.53174 245.863 4.53174 160C4.53174 74.1372 74.1373 4.53165 160 4.53165C245.863 4.53165 315.468 74.1372 315.468 160Z" stroke="white" stroke-width="4"/>
</svg>
