<svg width="42" height="42" viewBox="0 0 42 42" fill="none" xmlns="http://www.w3.org/2000/svg">
<path d="M15.7568 36.9848C15.5242 35.0463 15.3005 32.0779 15.3005 30.1006V22.6962L23.5808 9.3038L24.2173 8.27418L26.0244 4.56469C23.6284 4.49284 21.2386 4.28151 18.8672 3.93177C18.5958 4.97848 18.053 6.18038 17.0451 7.8862L12.0439 16.5703L8.52696 10.388C6.11228 6.18026 4.35443 15.443 4.35443 15.443L8.8262 22.657V30.1C8.83341 31.8881 8.72984 33.6749 8.51608 35.4501L15.7568 36.9848Z" fill="white"/>
<path d="M25.4596 18.5875V10.5696C25.4596 8.23417 25.4892 6.10012 25.7228 4.62101H18.6775C18.941 6.59295 19.0741 8.58014 19.0759 10.5696V32.7975C19.0979 34.593 18.9938 36.388 18.7646 38.169H25.8101C25.5376 36.3395 25.4597 35.1329 25.4597 32.7975V18.5875H25.4596Z" fill="white"/>
<path d="M29.9604 19.1862L37.1217 11.9405L32.6153 8.69114C32.6153 8.69114 31.6253 9.90506 30.2792 11.2861L22.238 19.7885V26.5899L25.9215 22.9063L29.9604 19.1862Z" fill="white"/>
<path d="M29.7595 17.0137L25.792 20.6678L33.7315 31.9989C34.567 33.217 37.4998 27.6216 37.4998 27.6216L29.7595 17.0137Z" fill="white"/>
<path d="M21 38.7215C30.7873 38.7215 38.7215 30.7873 38.7215 21C38.7215 11.2127 30.7873 3.27848 21 3.27848C11.2127 3.27848 3.27848 11.2127 3.27848 21C3.27848 30.7873 11.2127 38.7215 21 38.7215Z" stroke="white" stroke-width="3"/>
<path d="M21 41.1835C32.1471 41.1835 41.1835 32.1471 41.1835 21C41.1835 9.85294 32.1471 0.816456 21 0.816456C9.85294 0.816456 0.816456 9.85294 0.816456 21C0.816456 32.1471 9.85294 41.1835 21 41.1835Z" stroke="white"/>
</svg>
