<svg width="32" height="32" viewBox="0 0 32 32" fill="none" xmlns="http://www.w3.org/2000/svg">
<path fill-rule="evenodd" clip-rule="evenodd" d="M13.0217 10.9917V8.73621C13.0217 8.32519 13.043 8.18811 13.1063 7.97725C13.2754 7.39761 13.8464 6.96556 14.5229 6.96556C15.1994 6.96556 15.7702 7.40813 15.9394 7.97725C16.0028 8.18811 16.0241 8.32519 16.0241 8.73621V12.2142C16.0241 12.4251 16.0241 12.6358 15.9817 12.8256C15.8655 13.3525 15.3898 13.827 14.8612 13.9428C14.671 13.9849 14.4595 13.9849 14.248 13.9849H10.7595C10.3472 13.9849 10.2097 13.9638 9.99824 13.9006C9.4274 13.732 8.9835 13.1628 8.9835 12.4884C8.9835 11.8137 9.4274 11.2446 9.99824 11.076C10.2097 11.0127 10.3472 10.9917 10.7595 10.9917H13.0217ZM25.4537 26.7593H6.74235V10.3277C6.74235 10.1169 6.81636 9.93773 6.96439 9.79015L11.8166 4.95232C11.9646 4.80492 12.1443 4.73113 12.3558 4.73113H25.4537V26.7593ZM27.5787 1.02103C27.4836 1.01051 27.3566 1 27.1135 1H11.8588C11.6898 1 11.5207 1.01051 11.4043 1.02103C10.7066 1.08431 10.0828 1.41102 9.58598 1.90635L3.90908 7.56623C3.41245 8.06175 3.08456 8.68345 3.02128 9.37912C3.01055 9.49498 3 9.66359 3 9.83221V28.4139C3 28.6563 3.01055 28.7828 3.02128 28.8776C3.10565 29.6681 3.82452 30.3847 4.6174 30.469C4.71269 30.4797 4.83944 30.4902 5.08258 30.4902H27.1135C27.3566 30.4902 27.4836 30.4797 27.5787 30.469C28.3716 30.3847 29.0904 29.6681 29.175 28.8776C29.1853 28.7828 29.1961 28.6563 29.1961 28.4139V3.07633C29.1961 2.83392 29.1853 2.70737 29.175 2.61255C29.0904 1.82205 28.3716 1.10534 27.5787 1.02103Z" fill="white"/>
</svg>
