<svg width="32" height="32" viewBox="0 0 32 32" fill="none" xmlns="http://www.w3.org/2000/svg">
<path d="M2.92114 30.6151H8.89106C9.04421 30.6113 9.19426 30.5711 9.3288 30.4978C9.46334 30.4245 9.57849 30.3203 9.66475 30.1936L26.0981 3.18896C26.1467 3.11036 26.1729 3.01997 26.1738 2.92758C26.1747 2.83518 26.1503 2.74429 26.1033 2.66474C26.0563 2.58519 25.9885 2.52001 25.9071 2.47624C25.8257 2.43247 25.7339 2.41178 25.6416 2.41641H19.9878C19.852 2.41475 19.7184 2.44983 19.6009 2.51793C19.4835 2.58603 19.3866 2.68461 19.3206 2.80325L2.63965 30.1236C2.61393 30.1736 2.60112 30.2293 2.6024 30.2856C2.60367 30.3418 2.61899 30.3969 2.64696 30.4457C2.67493 30.4946 2.71466 30.5356 2.76255 30.5652C2.81043 30.5948 2.86495 30.6119 2.92114 30.6151Z" fill="white"/>
<path d="M23.4994 30.1935L31.2591 17.7271C31.3145 17.6401 31.3453 17.5396 31.3483 17.4365C31.3512 17.3333 31.3261 17.2313 31.2757 17.1413C31.2253 17.0512 31.1514 16.9765 31.0619 16.9251C30.9725 16.8737 30.8707 16.8474 30.7676 16.8492H25.1501C25.0457 16.8478 24.9427 16.8729 24.8506 16.922C24.7585 16.9712 24.6803 17.0428 24.6233 17.1302L16.6518 29.8779C16.6058 29.9518 16.5807 30.0368 16.5791 30.1239C16.5774 30.2109 16.5994 30.2968 16.6426 30.3724C16.6858 30.448 16.7486 30.5105 16.8244 30.5533C16.9002 30.596 16.9862 30.6175 17.0733 30.6154H22.7972C22.942 30.6181 23.0847 30.5799 23.2089 30.5053C23.3331 30.4307 23.4338 30.3227 23.4994 30.1935Z" fill="white"/>
</svg>
